<svg width="16" height="16" viewBox="0 0 16 16" fill="none" xmlns="http://www.w3.org/2000/svg">
<g clip-path="url(#clip0_1_150)">
<path d="M11.2038 13.3223L7.86266 13.8704L4.80261 13.3223L2.67284 11.1931L1.5224 7.27477L2.67284 4.80228L4.80261 2.67304L8.09111 2.13528L11.2038 2.67304L13.3276 4.80133L13.9705 8.0906L13.3336 11.1931L11.2038 13.3223Z" fill="white"/>
<path d="M0.54306 4.80229H2.67283V6.93153H0.54306V4.80229Z" fill="white"/>
<path d="M0.54306 6.93146H2.67283V9.06069H0.54306V6.93146Z" fill="white"/>
<path d="M0.54306 9.06386H2.67283V11.1931H0.54306V9.06386Z" fill="white"/>
<path d="M13.3276 4.80133H15.4574V6.93057H13.3276V4.80133Z" fill="white"/>
<path d="M13.3276 6.93146H15.4574V9.06069H13.3276V6.93146Z" fill="white"/>
<path d="M13.3216 9.06424H15.4514V11.1935H13.3216V9.06424Z" fill="white"/>
<path d="M4.81458 0.543808H6.94435V2.67304H4.81458V0.543808Z" fill="white"/>
<path d="M9.06207 0.542862H11.1918V2.6721H9.06207V0.542862Z" fill="white"/>
<path d="M6.94434 0.543808H9.07411V2.67304H6.94434V0.543808Z" fill="white"/>
<path d="M4.82657 13.3279H6.95634V15.4571H4.82657V13.3279Z" fill="white"/>
<path d="M9.07407 13.327H11.2038V15.4562H9.07407V13.327Z" fill="white"/>
<path d="M6.95633 13.3223H9.0861V15.4516H6.95633V13.3223Z" fill="white"/>
<path d="M2.68481 2.6721H4.81458V4.80134H2.68481V2.6721Z" fill="white"/>
<path d="M11.1979 2.6721H13.3276V4.80134H11.1979V2.6721Z" fill="white"/>
<path d="M2.67282 11.1931H4.80259V13.3223H2.67282V11.1931Z" fill="white"/>
<path d="M11.2038 11.1931H13.3336V13.3223H11.2038V11.1931Z" fill="white"/>
<path d="M4.82657 5.80032H6.95634V7.92956H4.82657V5.80032Z" fill="#1B0A32"/>
<path d="M9.07407 5.80145H11.2038V7.93069H9.07407V5.80145Z" fill="#1B0A32"/>
<path d="M2.67282 7.93272H4.80259V10.062H2.67282V7.93272Z" fill="white"/>
<path d="M4.81458 10.062H6.94435V12.1912H4.81458V10.062Z" fill="#1B0A32"/>
<path d="M11.1979 7.93311H13.3276V10.0623H11.1979V7.93311Z" fill="white"/>
<path d="M9.06207 10.062H11.1918V12.1912H9.06207V10.062Z" fill="#1B0A32"/>
<path d="M6.93832 10.062H9.06809V12.1912H6.93832V10.062Z" fill="#1B0A32"/>
</g>
<defs>
<clipPath id="clip0_1_150">
<rect width="14.9143" height="14.9143" fill="white" transform="translate(0.54306 0.542862)"/>
</clipPath>
</defs>
</svg>
