<svg width="233" height="45" viewBox="0 0 233 45" fill="none" xmlns="http://www.w3.org/2000/svg">
<path d="M22.399 4.30819C22.7195 4.09416 23.1116 4.01681 23.489 4.09317C23.866 4.16956 24.1976 4.3934 24.4106 4.71543L28.8283 11.3934C28.0271 11.9285 27.4702 12.7614 27.2803 13.709C27.0902 14.6566 27.2827 15.6413 27.8152 16.4464C28.3478 17.2514 29.1768 17.811 30.1199 18.0019C31.0631 18.1927 32.0429 17.9993 32.8441 17.4643L37.2619 24.1423C37.4748 24.4643 37.5517 24.8581 37.4758 25.2371C37.3998 25.6163 37.177 25.9495 36.8565 26.1635L15.1054 40.6902C14.7849 40.9041 14.3929 40.9816 14.0155 40.9051C13.6384 40.8288 13.3068 40.6049 13.0937 40.2829L8.67608 33.6048C9.47732 33.0698 10.0342 32.237 10.2242 31.2893C10.4142 30.3417 10.2217 29.357 9.68913 28.5519C9.15662 27.7469 8.32766 27.1873 7.38438 26.9965C6.44129 26.8057 5.46144 26.999 4.66023 27.534L0.242575 20.8562C0.0295682 20.5341 -0.0474272 20.1402 0.0285908 19.7612C0.104609 19.382 0.327192 19.0488 0.647876 18.8348L22.399 4.30819Z" fill="#ADADFF"/>
<path d="M21.9203 12.9863L10.7773 22.7696L16.422 23.2628L15.6619 32.048L26.7695 22.6724L21.1249 22.1795L21.9203 12.9863Z" fill="#052249"/>
<path d="M54.9146 34.5567C53.1491 34.5567 51.7962 34.119 50.8563 33.2435C49.9162 32.368 49.4462 30.9512 49.4462 28.993V20.5611H46.9355V16.587H49.4462V12.9586L54.0892 12.4748V16.587H57.8724V20.5611H54.0892V28.7511C54.0892 29.8569 54.5707 30.4098 55.5337 30.4098H57.4597V34.5567H54.9146ZM61.7287 15.1011C60.949 15.1011 60.2842 14.8362 59.7339 14.3063C59.2065 13.7534 58.9429 13.0968 58.9429 12.3365C58.9429 11.5993 59.2065 10.9658 59.7339 10.4359C60.2842 9.88299 60.949 9.60653 61.7287 9.60653C62.5311 9.60653 63.196 9.88299 63.7235 10.4359C64.2507 10.9658 64.5145 11.5993 64.5145 12.3365C64.5145 13.1198 64.2507 13.7764 63.7235 14.3063C63.196 14.8362 62.5311 15.1011 61.7287 15.1011ZM59.4244 34.5567V16.587H64.0674V34.5567H59.4244ZM75.3427 35.0059C74.0586 35.0059 72.8549 34.764 71.7314 34.2802C70.6309 33.7964 69.6564 33.1282 68.8081 32.2759C67.9598 31.4004 67.2948 30.3982 66.8133 29.2694C66.3547 28.1175 66.1255 26.885 66.1255 25.5718C66.1255 23.821 66.5266 22.2428 67.3292 20.8375C68.1546 19.4091 69.278 18.2688 70.6997 17.4164C72.1441 16.564 73.7721 16.1378 75.5834 16.1378C77.2114 16.1148 78.6672 16.4027 79.9513 17.0017C81.2353 17.6007 82.2556 18.4301 83.0122 19.4898L79.4354 22.4272C79.0227 21.8051 78.4839 21.3098 77.8189 20.9412C77.177 20.5727 76.4547 20.3883 75.6522 20.3883C74.6663 20.3883 73.8065 20.6302 73.0727 21.114C72.339 21.5748 71.7658 22.1969 71.3531 22.9801C70.9633 23.7633 70.7684 24.6272 70.7684 25.5718C70.7684 26.4933 70.9748 27.3572 71.3875 28.1636C71.8231 28.9469 72.4078 29.5805 73.1415 30.0643C73.8982 30.5251 74.7695 30.7554 75.7554 30.7554C76.6496 30.7554 77.4062 30.5596 78.0253 30.1679C78.6443 29.7532 79.1831 29.2349 79.6417 28.6129L83.0122 31.5502C82.1639 32.6331 81.1091 33.4854 79.8481 34.1074C78.6099 34.7065 77.1082 35.0059 75.3427 35.0059ZM84.8492 34.5567V9.33008H89.4922V23.844L96.1987 16.587H102.802L94.3759 24.9498L102.836 34.5567H96.6802L89.4922 26.0211V34.5567H84.8492ZM110.341 35.0059C108.506 35.0059 106.89 34.5796 105.491 33.7273C104.093 32.875 103.004 31.746 102.224 30.3407C101.467 28.9123 101.089 27.3343 101.089 25.6064C101.089 23.8786 101.49 22.3005 102.293 20.8721C103.095 19.4207 104.184 18.2688 105.56 17.4164C106.959 16.564 108.552 16.1378 110.341 16.1378C112.129 16.1378 113.7 16.564 115.052 17.4164C116.428 18.2688 117.494 19.4207 118.251 20.8721C119.03 22.3005 119.42 23.8786 119.42 25.6064C119.42 25.8599 119.409 26.1248 119.386 26.4012C119.363 26.6777 119.328 26.9657 119.283 27.2651H105.904C106.156 28.3248 106.661 29.1888 107.417 29.8569C108.197 30.5251 109.171 30.8591 110.341 30.8591C111.349 30.8591 112.221 30.6288 112.954 30.1679C113.711 29.7071 114.296 29.1312 114.708 28.4401L118.32 31.1701C117.609 32.2989 116.543 33.2205 115.121 33.9346C113.7 34.6488 112.106 35.0059 110.341 35.0059ZM110.272 20.1464C109.171 20.1464 108.231 20.4804 107.452 21.1486C106.672 21.8167 106.156 22.692 105.904 23.7749H114.743C114.491 22.7843 113.963 21.9318 113.161 21.2177C112.381 20.5036 111.418 20.1464 110.272 20.1464ZM127.562 34.5567C125.797 34.5567 124.444 34.119 123.504 33.2435C122.564 32.368 122.094 30.9512 122.094 28.993V20.5611H119.583V16.587H122.094V12.9586L126.737 12.4748V16.587H130.52V20.5611H126.737V28.7511C126.737 29.8569 127.218 30.4098 128.181 30.4098H130.107V34.5567H127.562ZM138.026 35.0059C135.022 35.0059 132.546 33.9576 130.597 31.8612L133.727 28.993C135.034 30.4674 136.432 31.2046 137.923 31.2046C138.725 31.2046 139.333 31.0319 139.745 30.6863C140.181 30.3177 140.399 29.8685 140.399 29.3386C140.399 29.016 140.319 28.7395 140.158 28.5092C140.02 28.2789 139.711 28.06 139.229 27.8526C138.771 27.6453 138.072 27.4379 137.131 27.2306C135.527 26.8389 134.334 26.3551 133.555 25.7792C132.775 25.2033 132.259 24.5581 132.007 23.844C131.755 23.1299 131.629 22.3926 131.629 21.6324C131.629 20.0657 132.213 18.7641 133.383 17.7274C134.575 16.6677 136.214 16.1378 138.301 16.1378C139.745 16.1378 140.983 16.3567 142.015 16.7944C143.047 17.2321 144.022 18.05 144.939 19.2479L141.568 21.8397C141.133 21.1486 140.64 20.6532 140.089 20.3537C139.562 20.0543 139 19.9045 138.404 19.9045C137.762 19.9045 137.223 20.0312 136.788 20.2846C136.375 20.5381 136.168 20.9412 136.168 21.4941C136.168 21.7936 136.306 22.0932 136.581 22.3926C136.856 22.6691 137.521 22.9455 138.576 23.222C140.319 23.6596 141.648 24.178 142.566 24.777C143.483 25.3529 144.113 26.0095 144.457 26.7468C144.801 27.4841 144.973 28.3019 144.973 29.2003C144.973 30.3062 144.663 31.2967 144.044 32.1722C143.448 33.0477 142.623 33.7389 141.568 34.2456C140.536 34.7524 139.356 35.0059 138.026 35.0059ZM157.066 35.0059C155.461 35.0059 154.212 34.6949 153.317 34.0729C152.446 33.4508 151.77 32.6331 151.288 31.6193V34.5567H146.783V9.33008H151.426V19.3516C151.907 18.407 152.584 17.6468 153.455 17.0708C154.326 16.4949 155.53 16.2069 157.066 16.2069C158.304 16.2069 159.451 16.4603 160.505 16.9672C161.583 17.451 162.523 18.1306 163.326 19.006C164.128 19.8584 164.759 20.8605 165.217 22.0125C165.676 23.1413 165.905 24.3508 165.905 25.641C165.905 27.3688 165.504 28.9469 164.701 30.3753C163.922 31.7805 162.867 32.9095 161.537 33.7619C160.207 34.5912 158.717 35.0059 157.066 35.0059ZM156.309 30.79C157.295 30.79 158.155 30.5481 158.889 30.0643C159.646 29.5805 160.23 28.9469 160.643 28.1636C161.056 27.3572 161.262 26.5049 161.262 25.6064C161.262 24.6618 161.056 23.7979 160.643 23.0146C160.23 22.2314 159.646 21.6094 158.889 21.1486C158.155 20.6648 157.295 20.4229 156.309 20.4229C155.301 20.4229 154.418 20.6648 153.661 21.1486C152.905 21.6324 152.32 22.266 151.907 23.0492C151.495 23.8324 151.288 24.6963 151.288 25.641C151.288 26.5624 151.495 27.415 151.907 28.1982C152.32 28.9814 152.905 29.615 153.661 30.0988C154.418 30.5596 155.301 30.79 156.309 30.79ZM176.647 35.0059C174.812 35.0059 173.173 34.5796 171.729 33.7273C170.284 32.875 169.149 31.746 168.324 30.3407C167.521 28.9123 167.12 27.3343 167.12 25.6064C167.12 23.8786 167.521 22.3005 168.324 20.8721C169.149 19.4437 170.284 18.3034 171.729 17.451C173.173 16.5986 174.812 16.1724 176.647 16.1724C178.504 16.1724 180.143 16.5986 181.565 17.451C183.009 18.3034 184.133 19.4437 184.935 20.8721C185.761 22.3005 186.173 23.8786 186.173 25.6064C186.173 27.3343 185.761 28.9123 184.935 30.3407C184.133 31.746 183.009 32.875 181.565 33.7273C180.143 34.5796 178.504 35.0059 176.647 35.0059ZM176.647 30.7554C177.633 30.7554 178.492 30.5251 179.226 30.0643C179.96 29.5805 180.522 28.9469 180.911 28.1636C181.324 27.3804 181.53 26.5279 181.53 25.6064C181.53 24.6618 181.324 23.7979 180.911 23.0146C180.522 22.2314 179.96 21.6094 179.226 21.1486C178.492 20.6648 177.633 20.4229 176.647 20.4229C175.661 20.4229 174.801 20.6648 174.067 21.1486C173.334 21.6094 172.76 22.2314 172.348 23.0146C171.958 23.7979 171.763 24.6618 171.763 25.6064C171.763 26.5279 171.958 27.3804 172.348 28.1636C172.76 28.9469 173.334 29.5805 174.067 30.0643C174.801 30.5251 175.661 30.7554 176.647 30.7554ZM194.03 34.5567C192.263 34.5567 190.912 34.119 189.971 33.2435C189.032 32.368 188.561 30.9512 188.561 28.993V20.5611H186.051V16.587H188.561V12.9586L193.205 12.4748V16.587H196.988V20.5611H193.205V28.7511C193.205 29.8569 193.686 30.4098 194.648 30.4098H196.574V34.5567H194.03ZM201.017 35.0059C200.121 35.0059 199.376 34.7065 198.781 34.1074C198.207 33.5084 197.921 32.7943 197.921 31.9649C197.921 31.1585 198.207 30.456 198.781 29.8569C199.376 29.2579 200.121 28.9584 201.017 28.9584C201.91 28.9584 202.644 29.2579 203.216 29.8569C203.791 30.456 204.076 31.1585 204.076 31.9649C204.076 32.7943 203.791 33.5084 203.216 34.1074C202.644 34.7065 201.91 35.0059 201.017 35.0059ZM213.676 35.0059C212.049 35.0059 210.558 34.5912 209.205 33.7619C207.876 32.9095 206.809 31.7805 206.007 30.3753C205.227 28.9469 204.838 27.3688 204.838 25.641C204.838 24.3508 205.066 23.1413 205.525 22.0125C205.985 20.8605 206.614 19.8584 207.417 19.006C208.22 18.1306 209.148 17.451 210.202 16.9672C211.28 16.4603 212.438 16.2069 213.676 16.2069C215.235 16.2069 216.452 16.5064 217.323 17.1054C218.194 17.6813 218.87 18.4531 219.35 19.4207V16.587H223.959V34.5567H219.454V31.6193C218.972 32.6331 218.285 33.4508 217.391 34.0729C216.52 34.6949 215.282 35.0059 213.676 35.0059ZM214.433 30.79C215.465 30.79 216.348 30.5596 217.081 30.0988C217.839 29.615 218.423 28.9814 218.835 28.1982C219.248 27.415 219.454 26.5624 219.454 25.641C219.454 24.6963 219.248 23.8324 218.835 23.0492C218.423 22.266 217.839 21.6324 217.081 21.1486C216.348 20.6648 215.465 20.4229 214.433 20.4229C213.447 20.4229 212.576 20.6648 211.82 21.1486C211.085 21.6094 210.512 22.2314 210.1 23.0146C209.687 23.7979 209.481 24.6618 209.481 25.6064C209.481 26.5049 209.687 27.3572 210.1 28.1636C210.512 28.9469 211.085 29.5805 211.82 30.0643C212.576 30.5481 213.447 30.79 214.433 30.79ZM229.022 15.1011C228.243 15.1011 227.578 14.8362 227.028 14.3063C226.501 13.7534 226.237 13.0968 226.237 12.3365C226.237 11.5993 226.501 10.9658 227.028 10.4359C227.578 9.88299 228.243 9.60653 229.022 9.60653C229.825 9.60653 230.49 9.88299 231.017 10.4359C231.545 10.9658 231.809 11.5993 231.809 12.3365C231.809 13.1198 231.545 13.7764 231.017 14.3063C230.49 14.8362 229.825 15.1011 229.022 15.1011ZM226.718 34.5567V16.587H231.361V34.5567H226.718Z" fill="#103A71"/>
</svg>
