<svg width="210" height="41" viewBox="0 0 210 41" fill="none" xmlns="http://www.w3.org/2000/svg">
<path d="M20.1879 3.92519C20.4768 3.73019 20.8302 3.65971 21.1703 3.72929C21.5101 3.79889 21.809 4.00283 22.0009 4.29623L25.9826 10.3806C25.2605 10.8681 24.7585 11.627 24.5874 12.4904C24.416 13.3538 24.5896 14.2509 25.0695 14.9844C25.5495 15.7179 26.2967 16.2278 27.1467 16.4017C27.9968 16.5756 28.8799 16.3993 29.602 15.9118L33.5836 21.9963C33.7756 22.2897 33.8449 22.6485 33.7764 22.9938C33.708 23.3392 33.5072 23.6429 33.2183 23.8378L13.6143 37.0732C13.3254 37.2682 12.9721 37.3388 12.632 37.269C12.2921 37.1995 11.9932 36.9955 11.8012 36.7021L7.81965 30.6177C8.54179 30.1302 9.04374 29.3714 9.21495 28.508C9.38615 27.6446 9.21265 26.7474 8.7327 26.0139C8.25274 25.2804 7.50562 24.7706 6.65545 24.5968C5.80545 24.4229 4.92233 24.599 4.2002 25.0865L0.21863 19.0022C0.0266494 18.7088 -0.0427456 18.3499 0.0257686 18.0046C0.0942827 17.6591 0.294894 17.3555 0.583923 17.1606L20.1879 3.92519Z" fill="#ADADFF"/>
<path d="M19.7569 11.832L9.71387 20.7457L14.8013 21.195L14.1162 29.1993L24.1274 20.6572L19.04 20.2081L19.7569 11.832Z" fill="#052249"/>
<path d="M49.4942 31.4862C47.9029 31.4862 46.6836 31.0874 45.8365 30.2897C44.9891 29.4921 44.5656 28.2012 44.5656 26.4171V18.7347H42.3027V15.1139H44.5656V11.8079L48.7502 11.3671V15.1139H52.16V18.7347H48.7502V26.1967C48.7502 27.2042 49.1842 27.7079 50.0521 27.7079H51.788V31.4862H49.4942ZM55.6356 13.76C54.9329 13.76 54.3337 13.5186 53.8377 13.0358C53.3624 12.5321 53.1248 11.9338 53.1248 11.2412C53.1248 10.5695 53.3624 9.99226 53.8377 9.50948C54.3337 9.00572 54.9329 8.75384 55.6356 8.75384C56.3588 8.75384 56.9581 9.00572 57.4335 9.50948C57.9086 9.99226 58.1464 10.5695 58.1464 11.2412C58.1464 11.9548 57.9086 12.553 57.4335 13.0358C56.9581 13.5186 56.3588 13.76 55.6356 13.76ZM53.5588 31.4862V15.1139H57.7434V31.4862H53.5588ZM67.9057 31.8955C66.7484 31.8955 65.6635 31.6751 64.651 31.2343C63.659 30.7935 62.7807 30.1847 62.0162 29.4081C61.2516 28.6105 60.6523 27.6974 60.2183 26.6689C59.8049 25.6194 59.5984 24.4965 59.5984 23.3C59.5984 21.7048 59.9599 20.2669 60.6833 18.9865C61.4272 17.6851 62.4397 16.6461 63.721 15.8695C65.0229 15.0929 66.4902 14.7045 68.1227 14.7045C69.59 14.6836 70.9021 14.9459 72.0594 15.4917C73.2167 16.0374 74.1362 16.7931 74.8182 17.7586L71.5944 20.4349C71.2224 19.8681 70.7369 19.4168 70.1375 19.081C69.559 18.7452 68.908 18.5772 68.1847 18.5772C67.2961 18.5772 66.5212 18.7976 65.8599 19.2384C65.1985 19.6583 64.682 20.225 64.31 20.9386C63.9586 21.6522 63.783 22.4394 63.783 23.3C63.783 24.1396 63.969 24.9267 64.341 25.6614C64.7336 26.375 65.2605 26.9523 65.9219 27.3931C66.6038 27.813 67.3891 28.0228 68.2777 28.0228C69.0836 28.0228 69.7656 27.8444 70.3235 27.4875C70.8815 27.1097 71.367 26.6374 71.7804 26.0707L74.8182 28.747C74.0536 29.7336 73.1029 30.5101 71.9664 31.0769C70.8505 31.6227 69.497 31.8955 67.9057 31.8955ZM76.4738 31.4862V8.50195H80.6585V21.7258L86.703 15.1139H92.6545L85.0601 22.7333L92.6855 31.4862H87.137L80.6585 23.7093V31.4862H76.4738ZM99.449 31.8955C97.7957 31.8955 96.3388 31.5071 95.0783 30.7305C93.8176 29.954 92.8361 28.9253 92.1335 27.645C91.4516 26.3435 91.1106 24.9058 91.1106 23.3315C91.1106 21.7572 91.4722 20.3195 92.1955 19.018C92.9187 17.6956 93.9004 16.6461 95.1403 15.8695C96.4008 15.0929 97.8371 14.7045 99.449 14.7045C101.061 14.7045 102.476 15.0929 103.696 15.8695C104.936 16.6461 105.896 17.6956 106.578 19.018C107.281 20.3195 107.632 21.7572 107.632 23.3315C107.632 23.5624 107.622 23.8038 107.601 24.0557C107.581 24.3075 107.55 24.57 107.508 24.8428H95.4503C95.6775 25.8083 96.1322 26.5954 96.8142 27.2042C97.5167 27.813 98.395 28.1173 99.449 28.1173C100.358 28.1173 101.143 27.9074 101.805 27.4875C102.487 27.0677 103.014 26.543 103.386 25.9133L106.64 28.4006C106 29.4291 105.039 30.2688 103.758 30.9194C102.476 31.5701 101.04 31.8955 99.449 31.8955ZM99.387 18.3568C98.3951 18.3568 97.5477 18.6611 96.8452 19.2699C96.1425 19.8787 95.6775 20.6762 95.4503 21.6628H103.417C103.189 20.7603 102.714 19.9835 101.991 19.3329C101.288 18.6822 100.42 18.3568 99.387 18.3568ZM114.97 31.4862C113.379 31.4862 112.16 31.0874 111.313 30.2897C110.466 29.4921 110.042 28.2012 110.042 26.4171V18.7347H107.779V15.1139H110.042V11.8079L114.226 11.3671V15.1139H117.636V18.7347H114.226V26.1967C114.226 27.2042 114.66 27.7079 115.528 27.7079H117.264V31.4862H114.97ZM124.401 31.8955C121.694 31.8955 119.462 30.9404 117.706 29.0303L120.526 26.4171C121.704 27.7604 122.965 28.4321 124.308 28.4321C125.032 28.4321 125.579 28.2747 125.951 27.9598C126.344 27.624 126.54 27.2147 126.54 26.7319C126.54 26.438 126.468 26.1861 126.323 25.9763C126.199 25.7664 125.92 25.567 125.486 25.378C125.073 25.1891 124.443 25.0002 123.595 24.8113C122.149 24.4544 121.074 24.0136 120.371 23.4889C119.669 22.9642 119.204 22.3764 118.977 21.7258C118.749 21.0751 118.636 20.4034 118.636 19.7107C118.636 18.2833 119.163 17.0974 120.216 16.1529C121.291 15.1873 122.769 14.7045 124.649 14.7045C125.951 14.7045 127.067 14.904 127.997 15.3028C128.927 15.7016 129.805 16.4467 130.632 17.5382L127.594 19.8996C127.201 19.2699 126.757 18.8186 126.261 18.5457C125.786 18.2729 125.279 18.1364 124.742 18.1364C124.164 18.1364 123.678 18.2518 123.285 18.4828C122.913 18.7137 122.727 19.081 122.727 19.5848C122.727 19.8576 122.851 20.1306 123.099 20.4034C123.347 20.6553 123.947 20.9071 124.897 21.159C126.468 21.5578 127.666 22.0301 128.493 22.5759C129.32 23.1005 129.888 23.6988 130.198 24.3705C130.508 25.0423 130.663 25.7873 130.663 26.606C130.663 27.6135 130.384 28.516 129.826 29.3137C129.289 30.1114 128.545 30.7411 127.594 31.2028C126.664 31.6645 125.6 31.8955 124.401 31.8955ZM141.562 31.8955C140.115 31.8955 138.989 31.6121 138.183 31.0454C137.398 30.4786 136.788 29.7336 136.354 28.8099V31.4862H132.294V8.50195H136.478V17.6327C136.912 16.7721 137.522 16.0794 138.307 15.5546C139.092 15.0299 140.177 14.7675 141.562 14.7675C142.678 14.7675 143.711 14.9984 144.662 15.4602C145.633 15.901 146.48 16.5202 147.204 17.3178C147.927 18.0944 148.495 19.0075 148.908 20.057C149.322 21.0855 149.528 22.1875 149.528 23.363C149.528 24.9372 149.167 26.375 148.444 27.6765C147.741 28.9568 146.79 29.9854 145.592 30.762C144.393 31.5177 143.05 31.8955 141.562 31.8955ZM140.88 28.0543C141.769 28.0543 142.544 27.8339 143.205 27.3931C143.887 26.9523 144.414 26.375 144.786 25.6614C145.158 24.9267 145.344 24.1501 145.344 23.3315C145.344 22.4708 145.158 21.6837 144.786 20.9701C144.414 20.2565 143.887 19.6898 143.205 19.2699C142.544 18.8291 141.769 18.6087 140.88 18.6087C139.971 18.6087 139.175 18.8291 138.493 19.2699C137.811 19.7107 137.284 20.288 136.912 21.0016C136.54 21.7152 136.354 22.5023 136.354 23.363C136.354 24.2025 136.54 24.9793 136.912 25.6929C137.284 26.4065 137.811 26.9838 138.493 27.4246C139.175 27.8444 139.971 28.0543 140.88 28.0543ZM159.21 31.8955C157.557 31.8955 156.079 31.5071 154.777 30.7305C153.475 29.954 152.452 28.9253 151.708 27.645C150.985 26.3435 150.623 24.9058 150.623 23.3315C150.623 21.7572 150.985 20.3195 151.708 19.018C152.452 17.7166 153.475 16.6776 154.777 15.901C156.079 15.1244 157.557 14.736 159.21 14.736C160.884 14.736 162.361 15.1244 163.642 15.901C164.944 16.6776 165.957 17.7166 166.68 19.018C167.424 20.3195 167.796 21.7572 167.796 23.3315C167.796 24.9058 167.424 26.3435 166.68 27.645C165.957 28.9253 164.944 29.954 163.642 30.7305C162.361 31.5071 160.884 31.8955 159.21 31.8955ZM159.21 28.0228C160.098 28.0228 160.873 27.813 161.535 27.3931C162.196 26.9523 162.702 26.375 163.053 25.6614C163.425 24.9478 163.611 24.171 163.611 23.3315C163.611 22.4708 163.425 21.6837 163.053 20.9701C162.702 20.2565 162.196 19.6898 161.535 19.2699C160.873 18.8291 160.098 18.6087 159.21 18.6087C158.321 18.6087 157.546 18.8291 156.885 19.2699C156.224 19.6898 155.707 20.2565 155.335 20.9701C154.984 21.6837 154.808 22.4708 154.808 23.3315C154.808 24.171 154.984 24.9478 155.335 25.6614C155.707 26.375 156.224 26.9523 156.885 27.3931C157.546 27.813 158.321 28.0228 159.21 28.0228ZM174.877 31.4862C173.285 31.4862 172.067 31.0874 171.219 30.2897C170.373 29.4921 169.948 28.2012 169.948 26.4171V18.7347H167.686V15.1139H169.948V11.8079L174.133 11.3671V15.1139H177.543V18.7347H174.133V26.1967C174.133 27.2042 174.568 27.7079 175.434 27.7079H177.17V31.4862H174.877ZM181.174 31.8955C180.367 31.8955 179.696 31.6227 179.159 31.0769C178.641 30.5311 178.384 29.8804 178.384 29.1248C178.384 28.3901 178.641 27.75 179.159 27.2042C179.696 26.6584 180.367 26.3856 181.174 26.3856C181.98 26.3856 182.64 26.6584 183.157 27.2042C183.674 27.75 183.931 28.3901 183.931 29.1248C183.931 29.8804 183.674 30.5311 183.157 31.0769C182.64 31.6227 181.98 31.8955 181.174 31.8955ZM192.584 31.8955C191.117 31.8955 189.773 31.5177 188.554 30.762C187.357 29.9854 186.394 28.9568 185.672 27.6765C184.969 26.375 184.618 24.9372 184.618 23.363C184.618 22.1875 184.824 21.0855 185.238 20.057C185.652 19.0075 186.219 18.0944 186.943 17.3178C187.667 16.5202 188.503 15.901 189.453 15.4602C190.424 14.9984 191.468 14.7675 192.584 14.7675C193.989 14.7675 195.086 15.0404 195.871 15.5861C196.656 16.1109 197.266 16.8141 197.698 17.6956V15.1139H201.852V31.4862H197.792V28.8099C197.358 29.7336 196.738 30.4786 195.932 31.0454C195.147 31.6121 194.031 31.8955 192.584 31.8955ZM193.267 28.0543C194.196 28.0543 194.992 27.8444 195.653 27.4246C196.336 26.9838 196.862 26.4065 197.233 25.6929C197.606 24.9793 197.792 24.2025 197.792 23.363C197.792 22.5023 197.606 21.7152 197.233 21.0016C196.862 20.288 196.336 19.7107 195.653 19.2699C194.992 18.8291 194.196 18.6087 193.267 18.6087C192.377 18.6087 191.592 18.8291 190.911 19.2699C190.249 19.6898 189.732 20.2565 189.361 20.9701C188.988 21.6837 188.803 22.4708 188.803 23.3315C188.803 24.1501 188.988 24.9267 189.361 25.6614C189.732 26.375 190.249 26.9523 190.911 27.3931C191.592 27.8339 192.377 28.0543 193.267 28.0543ZM206.415 13.76C205.713 13.76 205.114 13.5186 204.618 13.0358C204.143 12.5321 203.904 11.9338 203.904 11.2412C203.904 10.5695 204.143 9.99226 204.618 9.50948C205.114 9.00572 205.713 8.75384 206.415 8.75384C207.139 8.75384 207.738 9.00572 208.213 9.50948C208.689 9.99226 208.927 10.5695 208.927 11.2412C208.927 11.9548 208.689 12.553 208.213 13.0358C207.738 13.5186 207.139 13.76 206.415 13.76ZM204.339 31.4862V15.1139H208.523V31.4862H204.339Z" fill="white"/>
</svg>
