<svg width="33" height="33" viewBox="0 0 33 33" fill="none" xmlns="http://www.w3.org/2000/svg">
<path d="M19.5903 0.825727C19.8706 0.642609 20.2135 0.576417 20.5435 0.641764C20.8734 0.707124 21.1634 0.898643 21.3496 1.17416L25.2134 6.88784C24.5126 7.34563 24.0256 8.05829 23.8594 8.86906C23.6933 9.67982 23.8616 10.5223 24.3274 11.2112C24.7931 11.9 25.5181 12.3787 26.343 12.542C27.168 12.7053 28.025 12.5399 28.7257 12.082L32.5894 17.7957C32.7756 18.0712 32.843 18.4083 32.7765 18.7325C32.71 19.0569 32.5152 19.342 32.2349 19.5251L13.2113 31.954C12.931 32.1372 12.5881 32.2033 12.258 32.1381C11.9282 32.0727 11.6381 31.8812 11.4519 31.6056L7.58816 25.8919C8.2889 25.4342 8.77601 24.7215 8.94213 23.9107C9.10826 23.1 8.93991 22.2574 8.47417 21.5686C8.00842 20.8799 7.28341 20.4011 6.4584 20.2378C5.63357 20.0745 4.77661 20.2399 4.07586 20.6978L0.212157 14.984C0.0258604 14.7085 -0.0414801 14.3716 0.0250057 14.0473C0.0914915 13.7229 0.286164 13.4378 0.566635 13.2546L19.5903 0.825727Z" fill="white"/>
<path d="M19.172 8.25L9.42627 16.6206L14.363 17.0424L13.6983 24.5592L23.4131 16.5375L18.4763 16.1156L19.172 8.25Z" fill="#7D7DF6"/>
</svg>
