<svg width="260" height="254" viewBox="0 0 260 254" fill="none" xmlns="http://www.w3.org/2000/svg">
<path d="M154.939 1.67795C157.156 0.20453 159.868 -0.328065 162.478 0.19777C165.087 0.723605 167.381 2.26462 168.854 4.48151L199.412 50.4549C193.87 54.1385 190.018 59.8726 188.704 66.3962C187.39 72.9198 188.721 79.6989 192.405 85.2412C196.088 90.7834 201.822 94.6359 208.346 95.9498C214.871 97.2637 221.649 95.9322 227.191 92.2487L257.749 138.222C259.222 140.439 259.755 143.151 259.229 145.759C258.703 148.37 257.162 150.664 254.945 152.137L104.488 252.143C102.271 253.616 99.559 254.149 96.9487 253.623C94.3398 253.097 92.0459 251.556 90.5725 249.34L60.0146 203.366C65.5568 199.683 69.4093 193.948 70.7232 187.425C72.0371 180.901 70.7056 174.122 67.0221 168.58C63.3385 163.038 57.6044 159.185 51.0794 157.871C44.5558 156.557 37.7781 157.889 32.2359 161.572L1.67795 115.599C0.20453 113.382 -0.328065 110.67 0.19777 108.062C0.723605 105.451 2.26327 103.157 4.48151 101.684L154.939 1.67795Z" fill="white"/>
<path d="M151.627 61.4126L74.5484 128.764L113.593 132.158L108.336 192.64L185.17 128.096L146.125 124.701L151.627 61.4126Z" fill="#052249"/>
</svg>
